<svg xmlns="http://www.w3.org/2000/svg" width="24" height="24" viewBox="0 0 24 24" fill="none">
  <path d="M6 15.0001V19.5001H21V9.00012H18V7.50012H21.5385C21.873 7.50012 21.9945 7.53462 22.116 7.60062C22.2374 7.6643 22.3367 7.7631 22.401 7.88412C22.4655 8.00562 22.5 8.12712 22.5 8.46162V20.0386C22.5 20.3731 22.4655 20.4946 22.3995 20.6161C22.3358 20.7375 22.237 20.8368 22.116 20.9011C21.9945 20.9656 21.873 21.0001 21.5385 21.0001H5.4615C5.127 21.0001 5.0055 20.9656 4.884 20.8996C4.76264 20.8359 4.66331 20.7371 4.599 20.6161C4.536 20.4946 4.5 20.3731 4.5 20.0401V15.0001H6Z" fill="black"/>
  <path d="M18 4.50012H3V15.0001H18V4.50012ZM19.5 3.96162V15.5386C19.5 15.8731 19.4655 15.9946 19.3995 16.1161C19.3358 16.2375 19.237 16.3368 19.116 16.4011C18.9945 16.4656 18.873 16.5001 18.5385 16.5001H2.4615C2.127 16.5001 2.0055 16.4656 1.884 16.3996C1.76264 16.3359 1.66331 16.2371 1.599 16.1161C1.536 15.9946 1.5 15.8731 1.5 15.5401V3.96162C1.5 3.62712 1.5345 3.50562 1.6005 3.38412C1.66417 3.26276 1.76298 3.16344 1.884 3.09912C2.0055 3.03612 2.127 3.00012 2.46 3.00012H18.537C18.8715 3.00012 18.993 3.03462 19.1145 3.10062C19.2359 3.1643 19.3352 3.2631 19.3995 3.38412C19.464 3.50562 19.4985 3.62712 19.4985 3.96162H19.5Z" fill="black"/>
  <path d="M10.5 13.5001C9.50544 13.5001 8.55161 13.105 7.84835 12.4018C7.14509 11.6985 6.75 10.7447 6.75 9.75012C6.75 8.75556 7.14509 7.80173 7.84835 7.09847C8.55161 6.39521 9.50544 6.00012 10.5 6.00012C11.4946 6.00012 12.4484 6.39521 13.1517 7.09847C13.8549 7.80173 14.25 8.75556 14.25 9.75012C14.25 10.7447 13.8549 11.6985 13.1517 12.4018C12.4484 13.105 11.4946 13.5001 10.5 13.5001ZM10.5 12.0001C11.0967 12.0001 11.669 11.7631 12.091 11.3411C12.5129 10.9192 12.75 10.3469 12.75 9.75012C12.75 9.15338 12.5129 8.58109 12.091 8.15913C11.669 7.73717 11.0967 7.50012 10.5 7.50012C9.90326 7.50012 9.33097 7.73717 8.90901 8.15913C8.48705 8.58109 8.25 9.15338 8.25 9.75012C8.25 10.3469 8.48705 10.9192 8.90901 11.3411C9.33097 11.7631 9.90326 12.0001 10.5 12.0001Z" fill="black"/>
</svg>