<svg xmlns="http://www.w3.org/2000/svg" width="24" height="24" viewBox="0 0 24 24" fill="none">
  <path d="M7.72294 18.7429L7.72285 18.7428C5.15061 15.7888 3.79688 12.6793 3.79688 9.75015C3.79935 7.5753 4.6644 5.49023 6.20226 3.95238C7.7401 2.41453 9.82516 1.54948 12 1.547C14.1748 1.54948 16.2599 2.41453 17.7977 3.95238C19.3356 5.49024 20.2007 7.57531 20.2031 9.75018C20.2031 12.6793 18.8457 15.7888 16.2771 18.7428L16.277 18.7429C15.1238 20.0771 13.8257 21.2789 12.4067 22.3261C12.2886 22.4087 12.1479 22.453 12.0037 22.453C11.8596 22.453 11.7189 22.4087 11.6008 22.3261C10.1792 21.2793 8.87855 20.0775 7.72294 18.7429ZM11.971 20.8495L12 20.8723L12.029 20.8495C12.8054 20.2389 14.4962 18.8118 15.9933 16.8649C17.4899 14.9186 18.7969 12.4476 18.7969 9.75012C18.7969 7.94748 18.0808 6.21867 16.8061 4.94401C15.5315 3.66934 13.8026 2.95325 12 2.95325C10.1974 2.95325 8.46854 3.66934 7.19388 4.94401C5.91922 6.21867 5.20312 7.94748 5.20312 9.75012C5.20312 12.4486 6.51008 14.9195 8.00671 16.8656C9.50381 18.8123 11.1946 20.2389 11.971 20.8495ZM9.94265 6.67109C10.5516 6.26418 11.2676 6.047 12 6.047C12.9821 6.047 13.924 6.43715 14.6185 7.13162C15.313 7.82609 15.7031 8.76799 15.7031 9.75012C15.7031 10.4825 15.4859 11.1985 15.079 11.8075C14.6721 12.4164 14.0938 12.8911 13.4171 13.1714C12.7405 13.4516 11.9959 13.525 11.2776 13.3821C10.5592 13.2392 9.89939 12.8865 9.38149 12.3686C8.8636 11.8507 8.51092 11.1909 8.36803 10.4726C8.22514 9.75423 8.29848 9.00966 8.57876 8.333C8.85904 7.65634 9.33368 7.07799 9.94265 6.67109ZM10.7239 11.6599C11.1016 11.9123 11.5457 12.047 12 12.047C12.6092 12.047 13.1934 11.805 13.6241 11.3743C14.0549 10.9435 14.2969 10.3593 14.2969 9.75012C14.2969 9.29584 14.1622 8.85177 13.9098 8.47405C13.6574 8.09633 13.2987 7.80193 12.879 7.62809C12.4593 7.45424 11.9975 7.40876 11.5519 7.49738C11.1064 7.58601 10.6971 7.80476 10.3759 8.12599C10.0546 8.44721 9.83588 8.85647 9.74726 9.30202C9.65863 9.74757 9.70412 10.2094 9.87796 10.6291C10.0518 11.0488 10.3462 11.4075 10.7239 11.6599Z" fill="#393F49" stroke="#393F49" stroke-width="0.09375"/>
</svg>